<svg width="180" height="50" viewBox="0 0 580 184" fill="none" xmlns="http://www.w3.org/2000/svg">
<path d="M61.33 113.36L62.232 75.066C62.232 71.1847 62.0953 69.0527 61.822 68.67C61.5487 68.2327 61.0567 67.194 60.346 65.554C59.6353 63.8593 59.28 62.766 59.28 62.274C59.28 62.0553 59.8267 61.7547 60.92 61.372C63.872 60.2787 66.4687 59.732 68.71 59.732C71.006 59.732 72.2087 59.814 72.318 59.978C72.4273 60.0873 72.482 61.1533 72.482 63.176C72.482 65.144 72.3453 70.228 72.072 78.428C72.072 78.756 72.1267 78.92 72.236 78.92C72.3453 78.92 72.482 78.8107 72.646 78.592C75.7073 74.5467 79.3973 70.1733 83.716 65.472C88.0347 60.716 90.6313 58.338 91.506 58.338C92.4353 58.338 93.6107 58.6387 95.032 59.24C96.4533 59.8413 97.6287 60.4973 98.558 61.208C99.542 61.864 100.034 62.3013 100.034 62.52V62.602C97.902 63.9687 95.524 65.8547 92.9 68.26C90.276 70.6653 88.144 72.77 86.504 74.574C84.864 76.378 84.044 77.4167 84.044 77.69C84.044 79.7127 86.258 85.6167 90.686 95.402C95.1687 105.133 98.8313 111.447 101.674 114.344C101.729 114.399 101.592 114.59 101.264 114.918C100.991 115.191 100.526 115.519 99.87 115.902C99.214 116.339 98.476 116.749 97.656 117.132C95.7427 118.116 93.72 118.608 91.588 118.608C89.62 116.64 87.4333 112.977 85.028 107.62C82.6227 102.208 80.6273 97.3153 79.042 92.942C77.5113 88.5687 76.6913 86.382 76.582 86.382C76.3087 86.382 75.434 87.53 73.958 89.826C72.5367 92.0673 71.826 93.4067 71.826 93.844V99.174C71.826 108.577 71.99 114.071 72.318 115.656C72.3727 115.82 72.072 116.066 71.416 116.394C69.5573 117.323 67.2067 117.788 64.364 117.788L61.576 117.378C61.412 117.214 61.33 115.875 61.33 113.36ZM110.805 117.46C109.712 117.46 108.728 117.296 107.853 116.968V114.508C107.853 106.144 108.127 94.008 108.673 78.1L109.001 70.146C108.291 69.2167 107.58 67.768 106.869 65.8C106.213 63.7773 105.885 62.5473 105.885 62.11C105.885 61.618 105.94 61.3173 106.049 61.208C106.159 61.0987 107.525 60.962 110.149 60.798C112.828 60.5793 115.561 60.47 118.349 60.47C121.192 60.47 122.777 60.6067 123.105 60.88C132.781 82.528 137.701 93.5707 137.865 94.008C138.084 94.4453 138.248 94.664 138.357 94.664L138.685 94.09V91.794C138.685 87.1473 138.521 81.3527 138.193 74.41C137.92 67.4673 137.619 63.1487 137.291 61.454C138.057 60.7433 139.451 60.142 141.473 59.65C143.551 59.1033 145.409 58.83 147.049 58.83C148.744 58.83 149.591 58.9667 149.591 59.24C149.591 60.3333 149.4 61.618 149.017 63.094C148.635 64.57 148.443 65.3353 148.443 65.39C148.061 67.85 147.869 71.704 147.869 76.952C147.869 82.1453 147.869 85.89 147.869 88.186C147.924 90.482 147.951 92.696 147.951 94.828C148.006 96.9053 148.061 98.9827 148.115 101.06C148.17 103.083 148.197 104.941 148.197 106.636C148.307 110.244 148.361 112.759 148.361 114.18L148.443 115.328C148.443 115.492 148.088 115.711 147.377 115.984C145.245 116.859 142.375 117.296 138.767 117.296L135.733 116.968C133.547 110.791 130.349 103.001 126.139 93.598C121.93 84.1953 119.579 79.1387 119.087 78.428C118.595 77.6627 118.295 77.28 118.185 77.28L117.939 77.854C117.721 79.3847 117.611 82.692 117.611 87.776C117.611 92.8053 117.721 98.2993 117.939 104.258C118.213 110.217 118.513 113.961 118.841 115.492C117.365 116.804 114.687 117.46 110.805 117.46ZM174.051 107.702C174.269 107.702 174.379 109.069 174.379 111.802C174.379 114.481 174.215 115.82 173.887 115.82C165.96 115.82 160.275 116.203 156.831 116.968C156.667 116.968 156.585 115.765 156.585 113.36C156.585 110.955 156.776 109.506 157.159 109.014C157.815 108.686 158.881 108.522 160.357 108.522C160.247 106.663 160.193 100.049 160.193 88.678C160.193 77.2527 160.329 70.72 160.603 69.08H160.439C158.963 69.08 157.733 69.244 156.749 69.572C156.639 69.572 156.585 68.342 156.585 65.882C156.585 63.3673 156.749 61.946 157.077 61.618C157.405 61.29 159.591 60.9893 163.637 60.716C167.682 60.4427 171.071 60.306 173.805 60.306C173.969 60.306 174.051 60.7433 174.051 61.618L173.805 67.686C173.805 67.9047 173.723 68.014 173.559 68.014C171.7 68.014 170.716 68.0687 170.607 68.178C170.497 68.2327 170.415 69.3533 170.361 71.54C170.142 80.1773 170.033 87.6667 170.033 94.008C170.033 100.295 170.251 104.887 170.689 107.784C171.399 107.729 172.52 107.702 174.051 107.702ZM202.058 117.542C194.077 117.542 188.036 115.246 183.936 110.654C179.836 106.062 177.786 100.131 177.786 92.86C177.786 86.6827 179.153 80.9427 181.886 75.64C183.471 72.524 185.467 69.7907 187.872 67.44C190.277 65.0893 193.53 63.1487 197.63 61.618C201.73 60.0873 206.377 59.322 211.57 59.322C213.319 59.322 214.877 59.486 216.244 59.814C217.611 60.142 218.294 60.3607 218.294 60.47C218.294 63.094 218.103 66.1007 217.72 69.49C217.392 72.8247 217.201 74.5193 217.146 74.574C216.873 74.8473 215.725 75.2847 213.702 75.886C211.734 76.4873 210.258 76.788 209.274 76.788V76.296C209.274 73.836 208.919 72.114 208.208 71.13C207.497 70.146 206.267 69.654 204.518 69.654C200.637 69.654 197.029 71.704 193.694 75.804C190.359 79.8493 188.692 85.4253 188.692 92.532C188.692 96.304 189.621 99.6933 191.48 102.7C192.464 104.285 193.885 105.57 195.744 106.554C197.657 107.538 199.899 108.03 202.468 108.03C207.607 108.03 212.609 105.652 217.474 100.896C217.693 100.896 218.13 101.251 218.786 101.962C219.497 102.618 220.18 103.52 220.836 104.668C222.203 106.855 222.886 108.194 222.886 108.686C222.886 109.178 222.039 110.107 220.344 111.474C218.649 112.786 216.08 114.125 212.636 115.492C209.192 116.859 205.666 117.542 202.058 117.542ZM229.414 113.36L230.316 75.066C230.316 71.1847 230.179 69.0527 229.906 68.67C229.633 68.2327 229.141 67.194 228.43 65.554C227.719 63.8593 227.364 62.766 227.364 62.274C227.364 62.0553 227.911 61.7547 229.004 61.372C231.956 60.2787 234.553 59.732 236.794 59.732C239.09 59.732 240.293 59.814 240.402 59.978C240.511 60.0873 240.566 61.1533 240.566 63.176C240.566 65.144 240.429 70.228 240.156 78.428C240.156 78.756 240.211 78.92 240.32 78.92C240.429 78.92 240.566 78.8107 240.73 78.592C243.791 74.5467 247.481 70.1733 251.8 65.472C256.119 60.716 258.715 58.338 259.59 58.338C260.519 58.338 261.695 58.6387 263.116 59.24C264.537 59.8413 265.713 60.4973 266.642 61.208C267.626 61.864 268.118 62.3013 268.118 62.52V62.602C265.986 63.9687 263.608 65.8547 260.984 68.26C258.36 70.6653 256.228 72.77 254.588 74.574C252.948 76.378 252.128 77.4167 252.128 77.69C252.128 79.7127 254.342 85.6167 258.77 95.402C263.253 105.133 266.915 111.447 269.758 114.344C269.813 114.399 269.676 114.59 269.348 114.918C269.075 115.191 268.61 115.519 267.954 115.902C267.298 116.339 266.56 116.749 265.74 117.132C263.827 118.116 261.804 118.608 259.672 118.608C257.704 116.64 255.517 112.977 253.112 107.62C250.707 102.208 248.711 97.3153 247.126 92.942C245.595 88.5687 244.775 86.382 244.666 86.382C244.393 86.382 243.518 87.53 242.042 89.826C240.621 92.0673 239.91 93.4067 239.91 93.844V99.174C239.91 108.577 240.074 114.071 240.402 115.656C240.457 115.82 240.156 116.066 239.5 116.394C237.641 117.323 235.291 117.788 232.448 117.788L229.66 117.378C229.496 117.214 229.414 115.875 229.414 113.36ZM292.435 113.36L293.337 75.066C293.337 71.1847 293.201 69.0527 292.927 68.67C292.654 68.2327 292.162 67.194 291.451 65.554C290.741 63.8593 290.385 62.766 290.385 62.274C290.385 62.0553 290.932 61.7547 292.025 61.372C294.977 60.2787 297.574 59.732 299.815 59.732C302.111 59.732 303.314 59.814 303.423 59.978C303.533 60.0873 303.587 61.1533 303.587 63.176C303.587 65.144 303.451 70.228 303.177 78.428C303.177 78.756 303.232 78.92 303.341 78.92C303.451 78.92 303.587 78.8107 303.751 78.592C306.813 74.5467 310.503 70.1733 314.821 65.472C319.14 60.716 321.737 58.338 322.611 58.338C323.541 58.338 324.716 58.6387 326.137 59.24C327.559 59.8413 328.734 60.4973 329.663 61.208C330.647 61.864 331.139 62.3013 331.139 62.52V62.602C329.007 63.9687 326.629 65.8547 324.005 68.26C321.381 70.6653 319.249 72.77 317.609 74.574C315.969 76.378 315.149 77.4167 315.149 77.69C315.149 79.7127 317.363 85.6167 321.791 95.402C326.274 105.133 329.937 111.447 332.779 114.344C332.834 114.399 332.697 114.59 332.369 114.918C332.096 115.191 331.631 115.519 330.975 115.902C330.319 116.339 329.581 116.749 328.761 117.132C326.848 118.116 324.825 118.608 322.693 118.608C320.725 116.64 318.539 112.977 316.133 107.62C313.728 102.208 311.733 97.3153 310.147 92.942C308.617 88.5687 307.797 86.382 307.687 86.382C307.414 86.382 306.539 87.53 305.063 89.826C303.642 92.0673 302.931 93.4067 302.931 93.844V99.174C302.931 108.577 303.095 114.071 303.423 115.656C303.478 115.82 303.177 116.066 302.521 116.394C300.663 117.323 298.312 117.788 295.469 117.788L292.681 117.378C292.517 117.214 292.435 115.875 292.435 113.36ZM341.911 117.46C340.818 117.46 339.834 117.296 338.959 116.968V114.508C338.959 106.144 339.232 94.008 339.779 78.1L340.107 70.146C339.396 69.2167 338.686 67.768 337.975 65.8C337.319 63.7773 336.991 62.5473 336.991 62.11C336.991 61.618 337.046 61.3173 337.155 61.208C337.264 61.0987 338.631 60.962 341.255 60.798C343.934 60.5793 346.667 60.47 349.455 60.47C352.298 60.47 353.883 60.6067 354.211 60.88C363.887 82.528 368.807 93.5707 368.971 94.008C369.19 94.4453 369.354 94.664 369.463 94.664L369.791 94.09V91.794C369.791 87.1473 369.627 81.3527 369.299 74.41C369.026 67.4673 368.725 63.1487 368.397 61.454C369.162 60.7433 370.556 60.142 372.579 59.65C374.656 59.1033 376.515 58.83 378.155 58.83C379.85 58.83 380.697 58.9667 380.697 59.24C380.697 60.3333 380.506 61.618 380.123 63.094C379.74 64.57 379.549 65.3353 379.549 65.39C379.166 67.85 378.975 71.704 378.975 76.952C378.975 82.1453 378.975 85.89 378.975 88.186C379.03 90.482 379.057 92.696 379.057 94.828C379.112 96.9053 379.166 98.9827 379.221 101.06C379.276 103.083 379.303 104.941 379.303 106.636C379.412 110.244 379.467 112.759 379.467 114.18L379.549 115.328C379.549 115.492 379.194 115.711 378.483 115.984C376.351 116.859 373.481 117.296 369.873 117.296L366.839 116.968C364.652 110.791 361.454 103.001 357.245 93.598C353.036 84.1953 350.685 79.1387 350.193 78.428C349.701 77.6627 349.4 77.28 349.291 77.28L349.045 77.854C348.826 79.3847 348.717 82.692 348.717 87.776C348.717 92.8053 348.826 98.2993 349.045 104.258C349.318 110.217 349.619 113.961 349.947 115.492C348.471 116.804 345.792 117.46 341.911 117.46ZM415.57 96.632C414.805 96.5773 412.454 96.55 408.518 96.55C404.582 96.55 402.286 96.6593 401.63 96.878C398.733 106.39 397.093 113.251 396.71 117.46C396.71 117.515 396.027 117.542 394.66 117.542C393.348 117.542 391.981 117.46 390.56 117.296C387.553 116.859 386.05 116.476 386.05 116.148C386.05 113.961 387.991 107.593 391.872 97.042C391.161 96.4407 390.341 95.2107 389.412 93.352C388.483 91.4387 388.018 89.8533 388.018 88.596C388.018 88.5413 390.287 88.432 394.824 88.268C399.307 75.2573 401.849 68.3967 402.45 67.686C402.669 67.522 403.653 67.276 405.402 66.948C407.151 66.5653 408.272 66.374 408.764 66.374L408.6 65.308C408.491 64.5427 408.354 63.7227 408.19 62.848C408.081 61.9187 408.026 61.3173 408.026 61.044C408.026 60.88 408.491 60.552 409.42 60.06C412.099 58.748 414.859 58.092 417.702 58.092C418.249 61.3173 418.959 65.4447 419.834 70.474C420.763 75.4487 422.54 83.0747 425.164 93.352C427.788 103.629 430.303 110.791 432.708 114.836L433.282 115.82C433.282 116.093 432.763 116.558 431.724 117.214C430.685 117.87 429.319 118.499 427.624 119.1C425.929 119.701 424.371 120.002 422.95 120.002C422.458 120.002 421.255 116.913 419.342 110.736C417.483 104.504 416.226 99.8027 415.57 96.632ZM413.602 88.186C411.743 80.314 410.732 75.9133 410.568 74.984C410.404 74.0547 410.267 73.59 410.158 73.59C410.049 73.59 409.912 73.6993 409.748 73.918C409.256 74.8473 408.327 77.0887 406.96 80.642C405.648 84.1953 404.801 86.6553 404.418 88.022C410.486 88.022 413.547 88.0767 413.602 88.186ZM456.146 117.542C448.165 117.542 442.124 115.246 438.024 110.654C433.924 106.062 431.874 100.131 431.874 92.86C431.874 86.6827 433.241 80.9427 435.974 75.64C437.559 72.524 439.555 69.7907 441.96 67.44C444.365 65.0893 447.618 63.1487 451.718 61.618C455.818 60.0873 460.465 59.322 465.658 59.322C467.407 59.322 468.965 59.486 470.332 59.814C471.699 60.142 472.382 60.3607 472.382 60.47C472.382 63.094 472.191 66.1007 471.808 69.49C471.48 72.8247 471.289 74.5193 471.234 74.574C470.961 74.8473 469.813 75.2847 467.79 75.886C465.822 76.4873 464.346 76.788 463.362 76.788V76.296C463.362 73.836 463.007 72.114 462.296 71.13C461.585 70.146 460.355 69.654 458.606 69.654C454.725 69.654 451.117 71.704 447.782 75.804C444.447 79.8493 442.78 85.4253 442.78 92.532C442.78 96.304 443.709 99.6933 445.568 102.7C446.552 104.285 447.973 105.57 449.832 106.554C451.745 107.538 453.987 108.03 456.556 108.03C461.695 108.03 466.697 105.652 471.562 100.896C471.781 100.896 472.218 101.251 472.874 101.962C473.585 102.618 474.268 103.52 474.924 104.668C476.291 106.855 476.974 108.194 476.974 108.686C476.974 109.178 476.127 110.107 474.432 111.474C472.737 112.786 470.168 114.125 466.724 115.492C463.28 116.859 459.754 117.542 456.146 117.542ZM483.502 113.36L484.404 75.066C484.404 71.1847 484.267 69.0527 483.994 68.67C483.721 68.2327 483.229 67.194 482.518 65.554C481.807 63.8593 481.452 62.766 481.452 62.274C481.452 62.0553 481.999 61.7547 483.092 61.372C486.044 60.2787 488.641 59.732 490.882 59.732C493.178 59.732 494.381 59.814 494.49 59.978C494.599 60.0873 494.654 61.1533 494.654 63.176C494.654 65.144 494.517 70.228 494.244 78.428C494.244 78.756 494.299 78.92 494.408 78.92C494.517 78.92 494.654 78.8107 494.818 78.592C497.879 74.5467 501.569 70.1733 505.888 65.472C510.207 60.716 512.803 58.338 513.678 58.338C514.607 58.338 515.783 58.6387 517.204 59.24C518.625 59.8413 519.801 60.4973 520.73 61.208C521.714 61.864 522.206 62.3013 522.206 62.52V62.602C520.074 63.9687 517.696 65.8547 515.072 68.26C512.448 70.6653 510.316 72.77 508.676 74.574C507.036 76.378 506.216 77.4167 506.216 77.69C506.216 79.7127 508.43 85.6167 512.858 95.402C517.341 105.133 521.003 111.447 523.846 114.344C523.901 114.399 523.764 114.59 523.436 114.918C523.163 115.191 522.698 115.519 522.042 115.902C521.386 116.339 520.648 116.749 519.828 117.132C517.915 118.116 515.892 118.608 513.76 118.608C511.792 116.64 509.605 112.977 507.2 107.62C504.795 102.208 502.799 97.3153 501.214 92.942C499.683 88.5687 498.863 86.382 498.754 86.382C498.481 86.382 497.606 87.53 496.13 89.826C494.709 92.0673 493.998 93.4067 493.998 93.844V99.174C493.998 108.577 494.162 114.071 494.49 115.656C494.545 115.82 494.244 116.066 493.588 116.394C491.729 117.323 489.379 117.788 486.536 117.788L483.748 117.378C483.584 117.214 483.502 115.875 483.502 113.36Z" fill="black"/>
</svg>
